<?xml version="1.0" standalone="no"?>
<svg xmlns="http://www.w3.org/2000/svg" viewBox="5 20 250 195">
<g transform="translate(0.000000,255.000000) scale(0.100000,-0.100000)"
fill="#8B2D3B" stroke="none">
<path d="M1213 2288 c-6 -7 -43 -69 -83 -138 -75 -127 -327 -547 -528 -877
-61 -101 -109 -183 -108 -183 1 0 38 20 82 45 118 68 337 145 409 145 30 0 39
12 140 185 49 83 90 152 92 155 8 8 34 -31 122 -183 l84 -145 85 -17 c116 -23
239 -67 351 -126 l94 -50 -28 48 c-16 26 -91 152 -168 278 -151 247 -405 671
-477 797 -25 43 -48 78 -51 78 -4 0 -11 -6 -16 -12z"/>
<path d="M970 1190 c-30 -5 -68 -14 -85 -19 -25 -8 -17 -9 45 -10 159 -3 319
-48 455 -129 97 -57 245 -202 294 -288 68 -118 28 -104 301 -104 132 0 240 4
240 8 0 5 -28 42 -63 83 -191 223 -410 360 -699 434 -87 23 -129 27 -268 30
-91 2 -190 0 -220 -5z"/>
<path d="M808 1060 c-120 -22 -263 -78 -355 -141 -93 -63 -253 -233 -253 -268
0 -8 72 -11 248 -11 l248 0 74 73 c224 218 567 249 825 74 56 -38 -56 72 -120
118 -79 56 -161 97 -265 130 -71 23 -107 28 -220 31 -74 1 -156 -1 -182 -6z"/>
</g>
</svg>
