<?xml version="1.0" standalone="no"?>
<svg xmlns="http://www.w3.org/2000/svg" width="400" height="170" viewBox="0 0 600 255">
<g transform="translate(0.000000,255.000000) scale(0.100000,-0.100000)" fill="#8B2D3B" stroke="none">
<path d="M1213 2288 c-6 -7 -43 -69 -83 -138 -75 -127 -327 -547 -528 -877 -61 -101 -109 -183 -108 -183 1 0 38 20 82 45 118 68 337 145 409 145 30 0 39 12 140 185 49 83 90 152 92 155 8 8 34 -31 122 -183 l84 -145 85 -17 c116 -23 239 -67 351 -126 l94 -50 -28 48 c-16 26 -91 152 -168 278 -151 247 -405 671 -477 797 -25 43 -48 78 -51 78 -4 0 -11 -6 -16 -12z"/>
<path d="M970 1190 c-30 -5 -68 -14 -85 -19 -25 -8 -17 -9 45 -10 159 -3 319 -48 455 -129 97 -57 245 -202 294 -288 68 -118 28 -104 301 -104 132 0 240 4 240 8 0 5 -28 42 -63 83 -191 223 -410 360 -699 434 -87 23 -129 27 -268 30 -91 2 -190 0 -220 -5z"/>
<path d="M808 1060 c-120 -22 -263 -78 -355 -141 -93 -63 -253 -233 -253 -268 0 -8 72 -11 248 -11 l248 0 74 73 c224 218 567 249 825 74 56 -38 -56 72 -120 118 -79 56 -161 97 -265 130 -71 23 -107 28 -220 31 -74 1 -156 -1 -182 -6z"/>
</g>
<g transform="translate(0.000000,255.000000) scale(0.100000,-0.100000)" fill="#1C3A40" stroke="none">
<path d="M2480 2443 c-97 -40 -138 -157 -87 -253 63 -119 254 -119 315 0 12 24 22 63 22 85 0 50 -35 122 -73 149 -20 15 -46 21 -95 23 -37 1 -74 0 -82 -4z"/>
<path d="M5405 2436 c-89 -41 -121 -150 -72 -246 56 -112 242 -121 307 -15 18 29 24 53 24 99 1 112 -53 169 -164 173 -40 2 -76 -2 -95 -11z"/>
<path d="M3276 1999 c-85 -17 -191 -73 -255 -134 -103 -98 -151 -219 -151 -380 0 -161 42 -267 145 -370 104 -103 227 -149 400 -149 317 0 534 213 535 524 0 146 -49 270 -145 366 -63 64 -110 93 -205 126 -65 23 -247 33 -324 17z m246 -292 c132 -55 172 -264 75 -383 -44 -53 -96 -74 -189 -74 -115 0 -181 36 -217 120 -24 56 -28 149 -9 214 17 54 76 111 135 131 55 17 153 14 205 -8z"/>
<path d="M4487 1994 c-131 -31 -241 -110 -306 -218 -61 -101 -67 -146 -76 -493 l-7 -313 156 0 156 0 0 288 c0 169 4 302 11 325 12 43 59 101 99 122 76 39 210 23 262 -32 63 -67 63 -70 63 -398 l1 -300 152 -3 152 -3 0 294 c0 324 -9 392 -67 500 -59 109 -183 201 -314 232 -79 18 -205 18 -282 -1z"/>
<path d="M2399 1513 c-1 -269 -2 -499 -3 -513 l-1 -25 155 0 c141 0 155 2 154 18 -1 9 -2 240 -3 512 l-1 495 -150 0 -150 0 -1 -487z"/>
<path d="M5340 1995 c-1 -3 -1 -233 -1 -512 l-1 -508 151 -3 151 -3 0 516 0 515 -150 0 c-82 0 -150 -2 -150 -5z"/>
<path d="M2396 711 c-11 -12 -16 -31 -14 -52 3 -28 10 -36 51 -56 63 -32 65 -58 3 -50 -32 5 -47 2 -56 -8 -9 -11 -5 -17 19 -29 16 -9 41 -16 54 -16 37 0 77 36 77 69 0 31 -17 49 -73 74 -49 22 -43 43 11 40 42 -2 66 22 40 39 -25 15 -94 9 -112 -11z"/>
<path d="M2798 710 c-58 -45 -61 -129 -7 -174 59 -50 129 -42 179 21 32 41 23 107 -19 145 -40 35 -114 39 -153 8z m116 -41 c50 -40 21 -119 -44 -119 -35 0 -70 34 -70 67 0 29 42 73 68 73 11 0 31 -9 46 -21z"/>
<path d="M3220 620 l0 -110 81 0 c71 0 80 2 77 18 -2 13 -15 18 -56 20 l-52 3 0 90 c0 88 0 89 -25 89 l-25 0 0 -110z"/>
<path d="M3587 723 c-4 -3 -7 -34 -7 -67 0 -109 52 -169 128 -150 57 15 77 52 77 142 0 72 -1 77 -22 80 -22 3 -23 0 -23 -65 0 -78 -17 -113 -55 -113 -38 0 -55 35 -55 112 0 59 -2 68 -18 68 -10 0 -22 -3 -25 -7z"/>
<path d="M4007 724 c-17 -17 -6 -34 22 -34 37 0 44 -18 39 -108 -3 -63 -2 -67 19 -70 21 -3 22 0 25 85 l3 88 30 5 c18 3 30 11 30 20 0 12 -17 16 -80 18 -45 1 -84 0 -88 -4z"/>
<path d="M4400 621 c0 -109 5 -125 38 -114 8 3 12 35 12 114 l0 109 -25 0 -25 0 0 -109z"/>
<path d="M4719 702 c-42 -38 -51 -104 -19 -145 47 -60 117 -71 173 -27 38 30 52 73 38 120 -24 80 -128 109 -192 52z m126 -37 c14 -13 25 -34 25 -46 0 -32 -38 -69 -72 -69 -61 0 -91 78 -46 120 29 27 64 25 93 -5z"/>
<path d="M5150 620 l0 -110 25 0 c24 0 25 2 25 67 l0 68 45 -68 c36 -53 51 -67 71 -67 l25 0 -3 108 c-3 102 -4 107 -25 110 -22 3 -23 0 -23 -65 l0 -68 -45 68 c-36 53 -51 67 -70 67 l-25 0 0 -110z"/>
<path d="M5590 710 c-38 -38 -19 -83 46 -112 57 -25 52 -44 -9 -41 -34 2 -47 -1 -51 -14 -13 -32 71 -56 112 -32 63 35 55 87 -19 124 -57 29 -60 50 -6 50 43 0 70 21 47 35 -28 18 -98 12 -120 -10z"/>
<path d="M70 150 l0 -60 2935 0 2935 0 0 60 0 60 -2935 0 -2935 0 0 -60z"/>
</g>
</svg>
